<svg width="375" height="44" viewBox="0 0 375 44" fill="none" xmlns="http://www.w3.org/2000/svg">
<path fill-rule="evenodd" clip-rule="evenodd" d="M352.763 16.1774C352.997 16.4139 352.997 16.7974 352.763 17.0339L345.766 24.0933L352.578 30.9661C352.812 31.2026 352.812 31.5861 352.578 31.8226C352.344 32.0591 351.964 32.0591 351.729 31.8226L344.917 24.9497L338.106 31.8226C337.871 32.0591 337.491 32.0591 337.257 31.8226C337.022 31.5861 337.022 31.2026 337.257 30.9661L344.068 24.0933L337.072 17.0339C336.837 16.7974 336.837 16.4139 337.072 16.1774C337.306 15.9409 337.686 15.9409 337.921 16.1774L344.917 23.2368L351.914 16.1774C352.148 15.9409 352.528 15.9409 352.763 16.1774Z" fill="white" stroke="white" stroke-linecap="round"/>
</svg>
