<svg width="18" height="18" viewBox="0 0 18 18" fill="none" xmlns="http://www.w3.org/2000/svg">
<path fill-rule="evenodd" clip-rule="evenodd" d="M16.8247 1.17738C17.0584 1.41389 17.0584 1.79735 16.8247 2.03386L9.84661 9.09326L16.6403 15.9661C16.8741 16.2026 16.8741 16.5861 16.6403 16.8226C16.4065 17.0591 16.0275 17.0591 15.7937 16.8226L9 9.94974L2.20633 16.8226C1.97254 17.0591 1.5935 17.0591 1.35972 16.8226C1.12593 16.5861 1.12593 16.2026 1.35972 15.9661L8.15339 9.09326L1.17534 2.03386C0.941554 1.79735 0.941554 1.41389 1.17534 1.17738C1.40912 0.940873 1.78816 0.940873 2.02195 1.17738L9 8.23679L15.9781 1.17738C16.2118 0.940872 16.5909 0.940872 16.8247 1.17738Z" fill="white" stroke="white" stroke-linecap="round"/>
</svg>
