<svg width="69" height="69" viewBox="0 0 69 69" fill="none" xmlns="http://www.w3.org/2000/svg">
<path fill-rule="evenodd" clip-rule="evenodd" d="M52.5588 0C62.5312 0 69 6.46875 69 16.4414V52.5584C69 62.5312 62.5312 69 52.5588 69H16.4414C6.46874 69 0 62.5312 0 52.5584V16.4414C0 6.46875 6.46874 0 16.4414 0H52.5588Z" fill="url(#paint0_linear_1041_1980)"/>
<mask id="mask0_1041_1980" style="mask-type:alpha" maskUnits="userSpaceOnUse" x="0" y="0" width="69" height="69">
<path fill-rule="evenodd" clip-rule="evenodd" d="M52.5588 0C62.5312 0 69 6.46875 69 16.4414V52.5584C69 62.5312 62.5312 69 52.5588 69H16.4414C6.46874 69 0 62.5312 0 52.5584V16.4414C0 6.46875 6.46874 0 16.4414 0H52.5588Z" fill="white"/>
</mask>
<g mask="url(#mask0_1041_1980)">
<path d="M69.0945 0H0.0943604V69H69.0945V0Z" fill="url(#paint1_linear_1041_1980)"/>
<mask id="mask1_1041_1980" style="mask-type:alpha" maskUnits="userSpaceOnUse" x="0" y="0" width="70" height="69">
<path d="M69.0945 0H0.0943604V69H69.0945V0Z" fill="white"/>
</mask>
<g mask="url(#mask1_1041_1980)">
<path opacity="0.5" fill-rule="evenodd" clip-rule="evenodd" d="M27.088 52.4956H27.3755V69.1706H27.088V52.4956Z" fill="#CCCCCC"/>
<path opacity="0.5" d="M27.3575 0H27.088V52.8279H27.3575V0Z" fill="white"/>
<path opacity="0.5" fill-rule="evenodd" clip-rule="evenodd" d="M13.3418 59.0273H13.6114V69.1351H13.3418V59.0273Z" fill="#CCCCCC"/>
<path opacity="0.5" d="M13.6113 0H13.3418V59.4316H13.6113V0Z" fill="white"/>
<path opacity="0.5" d="M41.3732 57.2754H41.1036V69H41.3732V57.2754Z" fill="#CCCCCC"/>
<path opacity="0.5" fill-rule="evenodd" clip-rule="evenodd" d="M41.1036 0H41.3731V56.7364H41.1036V0Z" fill="white"/>
<path opacity="0.5" fill-rule="evenodd" clip-rule="evenodd" d="M55.254 50.5371H55.5235V69H55.254V50.5371Z" fill="#CCCCCC"/>
<path opacity="0.5" fill-rule="evenodd" clip-rule="evenodd" d="M55.254 0H55.5235V48.6504H55.254V0Z" fill="white"/>
<path d="M56.0464 25.4082L56.6018 23.5112L54.6575 23.567C54.4912 23.567 53.3247 23.5112 52.1582 22.6743C52.2694 22.6743 52.325 22.6743 52.4361 22.6743C53.6026 22.6743 54.7687 21.949 55.213 20.9447L56.0464 19.1035C54.991 19.1035 54.0469 18.9919 54.0469 18.9919C54.0469 18.9919 53.2691 18.8803 52.4361 17.9876C51.8251 17.3739 51.0477 17.0391 50.2143 17.0391C49.8256 17.0391 49.5481 17.0949 49.2702 17.2065C49.3257 17.0391 49.3813 16.9275 49.3813 16.7602C49.6589 15.0305 48.5484 13.6915 48.5484 13.6915L47.1039 11.906L46.2154 14.0262C46.2154 14.0262 45.9934 14.5284 45.6043 14.7516C45.4936 14.1378 45.1601 13.4125 44.5494 12.743C43.3273 11.4597 41.8833 11.2923 41.1055 11.2923C40.7724 11.2923 40.4949 11.3481 40.4393 11.3481L38.6618 11.6829C38.773 11.2923 38.9953 10.6228 39.384 10.009L40.3281 8.50262L37.8288 8.78157L37.0512 7.10775L35.5516 7.88886L34.1631 6.5498L32.8301 7.94468L31.3305 7.16356L30.553 8.83738L28.1092 8.5584L29.0534 10.0649C29.4421 10.6786 29.6643 11.3481 29.7754 11.7387L28.1092 11.4039H28.0536C27.9425 11.4039 27.7204 11.3481 27.3316 11.3481C26.554 11.3481 25.1099 11.5155 23.8881 12.7988C23.2216 13.4683 22.9439 14.1936 22.8328 14.8073C22.444 14.5842 22.2218 14.082 22.2218 14.082L21.3332 11.9619L19.8336 13.803C19.6669 14.0262 18.7783 15.2537 19.0005 16.8159C19.0005 16.9833 19.056 17.0949 19.1115 17.2623C18.8338 17.1507 18.5006 17.0949 18.1673 17.0949C17.3342 17.0949 16.5566 17.4296 15.9457 18.0434C15.057 18.9361 14.335 19.0477 14.335 19.0477C14.335 19.0477 13.5574 19.2151 12.3356 19.1593L13.1687 21.0005C13.613 22.0048 14.7794 22.7301 15.9457 22.7301C16.0568 22.7301 16.1123 22.7301 16.2234 22.7301C15.057 23.567 13.8907 23.6228 13.7241 23.6228L11.7246 23.5112L12.3356 25.4082C12.6133 26.3567 13.613 27.9748 15.5569 28.1421C15.3348 29.0348 14.8904 29.9834 13.8907 30.4297L12.4467 31.0434L13.2242 32.4383C13.6685 33.1636 14.7238 34.0563 16.2234 34.0563C16.5566 34.0563 16.8899 34.0005 17.1676 33.9447C17.2232 34.2795 17.3342 34.6143 17.4453 34.949C17.8897 36.2881 17.5009 37.2366 17.5009 37.2366L16.7788 38.7429L18.3895 39.1895C18.3895 39.1895 18.8894 39.3567 19.5003 39.3567C19.778 39.3567 20.0557 39.3011 20.2779 39.2451C20.4445 39.1895 20.6667 39.1336 20.8333 39.0776C21.0555 39.4682 21.2776 39.8032 21.6109 40.0819C22.6661 41.1422 24.1102 41.7 25.9431 41.7H27.276L24.5546 42.8159L26.6095 43.8202C27.3871 44.2108 28.2758 44.6014 29.1644 44.9361L28.8867 45.6613L29.6088 45.9964C29.6643 46.052 31.0528 46.6657 33.33 46.7772C33.33 46.7772 33.8854 46.7772 34.1631 46.7772C34.4408 46.7772 34.9962 46.7772 34.9962 46.7772C37.2734 46.6657 38.6618 46.052 38.7174 45.9964L39.4396 45.6613L39.1617 44.9361C40.1058 44.6014 41.0503 44.1552 41.7722 43.7646L43.8272 42.7603L41.1055 41.6444H42.4388C44.2715 41.6444 45.7711 41.0863 46.7708 40.0263C47.0487 39.7473 47.3263 39.3567 47.5486 39.022C47.715 39.0776 47.8817 39.1336 48.1037 39.1895C48.326 39.2451 48.6035 39.3011 48.8815 39.3011C49.4925 39.3011 49.9924 39.1895 49.9924 39.1895L51.6031 38.7429L50.8809 37.2366C50.8809 37.1808 50.4922 36.2881 50.9365 34.949C51.0477 34.6143 51.1585 34.2795 51.2141 33.9447C51.492 34.0005 51.8251 34.0563 52.1582 34.0563C54.1025 34.0563 54.991 32.7173 55.1574 32.3825L55.9352 30.9876L54.4912 30.3739C53.4914 29.9275 52.9916 28.9791 52.8248 28.0864C54.7131 27.9748 55.7684 26.3567 56.0464 25.4082Z" fill="white"/>
<path d="M34.2797 12.3965C32.7094 12.3965 31.5316 12.9099 31.3073 13.5374L34.2797 14.7353L37.2521 13.5374C37.0277 12.9099 35.85 12.3965 34.2797 12.3965Z" fill="white"/>
<path d="M34.1604 43.3094H34.1049C33.1598 43.3094 31.8812 43.1418 31.2697 42.918L30.4914 44.9872C30.9917 45.1551 32.6595 45.4909 34.1049 45.4909C35.5503 45.4909 37.2736 45.1551 37.7183 44.9872L36.9956 42.918C36.3841 43.1418 35.1055 43.3094 34.1604 43.3094Z" fill="white"/>
<path d="M40.0234 41.3975C39.4592 41.7336 38.2183 42.1821 37.4852 42.4064L38.1056 44.0873C39.2338 43.7511 40.1925 43.4149 40.9822 43.0224L39.6286 42.6303L40.0234 41.3975Z" fill="white"/>
<path d="M28.5963 41.3975L28.9911 42.6053L27.6938 43.0443C28.4835 43.4284 29.3859 43.758 30.5703 44.0873L31.1907 42.4405C30.4011 42.166 29.1603 41.7271 28.5963 41.3975Z" fill="white"/>
<path d="M34.1632 10.4427C35.3297 10.4427 36.4963 10.7229 37.385 11.2272C37.4406 10.947 37.5517 10.6109 37.7184 10.2746L37.385 10.3307L37.0517 10.3867L36.8851 10.0505L36.4407 9.09792L35.6075 9.54619L35.2741 9.71432L35.052 9.43414L34.1632 8.5376L33.3299 9.43414L33.0521 9.65827L32.7189 9.49018L31.8856 9.04191L31.4412 9.99446L31.2746 10.3307L30.9413 10.2746L30.608 10.2186C30.7746 10.5548 30.8857 10.891 30.9413 11.1712C31.8856 10.7229 32.9966 10.4427 34.1632 10.4427Z" fill="white"/>
<path d="M15.9237 21.1674C16.0923 21.1674 16.261 21.1674 16.3735 21.1134C17.273 20.8436 17.6104 19.4943 19.1847 18.6847C19.1847 18.6847 18.7349 18.3608 18.1726 18.3608C17.7791 18.3608 17.3293 18.4688 16.9357 18.9006C15.6425 20.1959 14.4056 20.2499 14.4056 20.2499C14.6305 20.7356 15.249 21.1674 15.9237 21.1674Z" fill="white"/>
<path fill-rule="evenodd" clip-rule="evenodd" d="M52.5117 26.7135H52.4561C51.6775 26.7135 51.2881 26.4909 51.2881 26.4909C51.2881 26.4909 51.0098 30.5527 54.0136 31.7768C54.0136 31.7768 53.4574 32.7227 52.2338 32.7227C50.7319 32.6671 50.1201 31.7768 50.1201 31.7768C50.1201 31.7768 50.2312 32.9452 49.675 34.5588C49.0076 36.5063 49.675 37.8973 49.675 37.8973C49.675 37.8973 49.2855 38.0086 48.8961 38.0086C48.7849 38.0086 48.6182 38.0086 48.4514 37.953C47.2274 37.6747 46.8939 36.5063 46.8939 36.5063C46.8939 36.5063 47.0051 40.3456 42.4994 40.3456H42.4438C42.4438 40.3456 42.8333 39.789 42.9444 38.2311C43.1671 35.3934 45.1137 35.004 45.1137 35.004C45.1137 35.004 44.0569 34.837 43.6118 34.4476C42.8888 33.7799 42.9444 33.0565 42.9444 33.0565C44.5019 33.0565 45.5588 32.5001 46.3377 31.6099C47.1718 30.6083 47.3386 29.5511 47.3386 29.5511C47.3386 29.5511 46.5044 30.3301 44.8358 30.3301H44.3907C43.6118 30.2745 43.0556 29.7737 43.0556 29.7737C44.7802 28.6609 45.9482 26.7691 44.8914 23.8758C44.0569 21.5388 41.9987 19.814 39.941 18.5342C39.2732 18.0891 38.8842 17.5883 38.8842 17.1988C38.8842 16.5884 39.4005 16.35 39.9299 16.1057C40.2691 15.9492 40.6138 15.7903 40.8307 15.5296C41.4425 14.7506 41.0534 13.5265 40.4972 12.8032C40.4972 12.8032 40.7196 12.7476 40.9979 12.7476C41.5541 12.7476 42.6109 12.8588 43.4451 13.7491C44.5575 14.9175 44.1124 16.1973 44.1124 16.1973L44.3907 16.2529C44.5575 16.3086 44.7802 16.3086 44.947 16.3086H45.0581C46.6712 16.3086 47.3945 14.5837 47.3945 14.5837C47.3945 14.5837 49.1188 16.698 46.56 18.3673C46.1706 18.6455 45.9482 18.9237 46.0038 19.2019L46.0594 19.3688L46.2261 19.4245C47.9627 19.8843 48.8551 21.0008 49.8939 22.3002C49.9863 22.416 50.0798 22.5333 50.1756 22.6517C51.8999 24.8773 54.403 24.9329 54.681 24.9329H54.7365C54.7365 24.9329 54.1803 26.7135 52.5117 26.7135ZM49.3967 28.1045C49.5638 28.7165 50.3424 30.2745 51.566 30.8865C51.566 30.8865 50.0085 29.9963 49.3411 26.324V26.3796C48.8961 22.7629 46.2261 20.0921 43.2783 18.4786C43.0882 18.3645 42.898 18.2764 42.7259 18.1966C42.6458 18.1595 42.5699 18.1243 42.4994 18.0891C43.3895 18.2004 44.8358 18.2004 45.9482 17.2544C45.9482 17.2544 44.224 18.5342 40.7196 17.3657C40.989 17.5403 41.3356 17.7374 41.7331 17.9636C42.7301 18.5307 44.048 19.2805 45.2808 20.3147C49.5638 24.1539 46.5044 27.8263 46.5044 27.8263C48.0619 26.2127 48.1175 24.4322 47.6725 23.0411C48.507 24.4322 49.0076 26.0457 48.9517 28.1045C48.8405 30.9978 47.2274 33.5573 45.5588 35.5604C44.7246 36.5063 44.5575 37.7304 44.5575 37.7304C44.5575 37.7304 44.8914 36.6732 45.8371 35.5604C47.6725 33.446 49.1744 31.276 49.3967 28.1045Z" fill="white"/>
<path fill-rule="evenodd" clip-rule="evenodd" d="M24.8309 34.3785C24.3859 34.8246 23.3291 34.9362 23.3291 34.9362C23.3291 34.9362 25.2759 35.3822 25.4984 38.2262C25.6096 39.7875 25.999 40.3453 25.999 40.3453H25.9434C21.4379 40.3453 21.5491 36.4975 21.5491 36.4975C21.5491 36.4975 21.271 37.6686 19.9917 37.9474C19.8804 38.0032 19.7135 38.0032 19.5467 38.0032C19.1017 38.0032 18.768 37.8917 18.768 37.8917C18.768 37.8917 19.4354 36.4975 18.768 34.5458C18.2117 32.9286 18.323 31.7576 18.323 31.7576C18.323 31.7576 17.7111 32.7056 16.2093 32.7056C14.9856 32.7056 14.4293 31.7576 14.4293 31.7576C17.433 30.475 17.1549 26.46 17.1549 26.46C17.1549 26.46 16.7655 26.7945 15.9868 26.7945H15.9312C14.2625 26.7945 13.7062 25.0101 13.7062 25.0101C14.04 25.0101 16.4874 24.9543 18.2117 22.7237C18.276 22.644 18.3396 22.5647 18.4027 22.4861C19.4866 21.1351 20.4264 19.9637 22.161 19.4894L22.3278 19.4336L22.3835 19.2106C22.4391 18.9318 22.2722 18.6529 21.8272 18.3741C19.2686 16.7012 20.9929 14.5822 20.9929 14.5822C20.9929 14.5822 21.716 16.3108 23.3291 16.3108H23.4403C23.6628 16.3108 23.8297 16.3108 23.9966 16.2551L24.3303 16.0878C24.3303 16.0878 23.8853 14.8052 24.9978 13.6341C25.8321 12.7977 26.8334 12.6304 27.4452 12.6304C27.779 12.6304 27.9458 12.6861 27.9458 12.6861C27.3896 13.4111 26.9446 14.6379 27.6121 15.4186C27.8312 15.6822 28.1797 15.8506 28.5218 16.0159C29.0481 16.2702 29.5589 16.517 29.5589 17.0915C29.5589 17.5377 29.1695 17.9838 28.502 18.4299C26.444 19.7125 24.3859 21.4411 23.5516 23.7833C22.4947 26.683 23.6628 28.579 25.3871 29.6943C25.3871 29.6943 24.8309 30.1962 24.0522 30.2519H23.6072C21.9385 30.2519 21.1042 29.4712 21.1042 29.4712C21.1042 29.4712 21.271 30.5307 22.1054 31.5345C22.8841 32.4267 23.9409 32.9844 25.4984 32.9844C25.4984 32.9844 25.554 33.7651 24.8309 34.3785ZM19.0461 28.1886C19.2686 31.3672 20.8261 33.542 22.606 35.661C23.5516 36.7763 23.8853 37.8359 23.8853 37.8359C23.8853 37.8359 23.7185 36.6648 22.8841 35.661C21.2154 33.5978 19.6023 31.0884 19.4911 28.2444C19.4355 26.1811 19.9361 24.5082 20.7704 23.1698C20.3254 24.6197 20.381 26.3484 21.9385 27.9656C21.9385 27.9656 18.8236 24.2293 23.1622 20.4374C24.3949 19.4009 25.7129 18.6494 26.7097 18.081C27.1072 17.8543 27.4537 17.6568 27.7233 17.4819C24.2191 18.6529 22.4947 17.3703 22.4947 17.3703C23.6072 18.3741 25.0534 18.3741 25.9434 18.2068C25.6653 18.3183 25.4428 18.4299 25.1647 18.5971C22.2166 20.2143 19.5467 22.8352 19.1017 26.5157V26.4599C18.4342 30.0288 16.8768 30.9769 16.8768 30.9769C18.1005 30.3634 18.8792 28.7463 19.0461 28.1886Z" fill="white"/>
<path fill-rule="evenodd" clip-rule="evenodd" d="M33.9883 14.9854V19.296L32.0186 18.1764L31.3073 14.0337L33.9883 14.9854ZM33.3864 16.7208V16.049L32.1827 15.4892C32.1827 15.4892 32.1827 15.8811 32.7299 16.3289C33.0582 16.6088 33.277 16.6648 33.277 16.6648L33.3864 16.7208Z" fill="white"/>
<path fill-rule="evenodd" clip-rule="evenodd" d="M37.019 14.1509L36.3077 18.2936L34.338 19.4132V15.1026L37.019 14.1509ZM36.1435 15.6064L34.9398 16.1102V16.838L35.0492 16.782C35.104 16.782 35.2681 16.7261 35.5964 16.4462C36.1435 15.9983 36.1435 15.6064 36.1435 15.6064Z" fill="white"/>
<path d="M30.0448 29.2401C30.3102 29.353 30.5757 29.353 30.7349 29.353V29.2965C30.7349 29.2401 30.788 29.1836 30.788 29.1272C30.8411 28.9014 30.8411 28.6191 30.8411 28.4497C30.7349 28.3933 30.5757 28.2804 30.5226 28.0545C30.4164 27.8287 30.3102 27.7158 30.0979 27.7158C29.8324 27.7158 29.567 27.8852 29.4608 27.9416C29.3546 28.6191 29.7263 29.1272 30.0448 29.2401Z" fill="white"/>
<path d="M36.0736 26.8975C35.5805 27.4404 34.5944 28.3634 34.5396 28.4177L34.4848 28.472L31.4169 28.4177C31.4169 28.7435 31.3621 28.9606 31.3073 29.1778C31.3073 29.2321 31.3073 29.2321 31.3073 29.2864L34.9779 29.9379C35.3614 29.6665 36.4023 28.9064 36.7858 28.6349C36.5119 28.2005 36.4571 27.7119 36.5119 27.3318C36.3475 27.1689 36.1832 27.0061 36.0736 26.8975Z" fill="white"/>
<path d="M36.4518 23.0932C35.7318 23.8099 35.0671 24.0855 34.4579 24.1407C34.3471 24.1407 34.2363 24.1407 34.1255 24.1407C34.0147 24.1407 33.9039 24.1407 33.7932 24.1407C33.6824 24.1407 33.5716 24.1407 33.4608 24.0855C33.4055 24.2509 33.3501 24.5817 33.5162 24.9125C33.627 25.1881 33.9039 25.4087 34.2917 25.574L34.4025 25.6292V25.7946C34.4025 25.8497 34.4579 26.7317 35.3994 27.0074C35.5656 26.842 35.7318 26.6766 35.7871 26.5664C35.5656 26.0702 35.6764 25.6292 36.0087 25.3535C36.0087 25.4087 35.8425 26.5664 36.8396 27.0074L37.0057 27.0625L36.9503 27.2279C36.9503 27.283 36.618 28.4407 37.7811 28.8266L38.0029 28.8818L37.8919 29.1023C37.8919 29.1574 37.4488 30.2049 38.5012 30.7562H40.8276V28.9369C39.9966 28.8266 39.6642 28.1651 39.5534 27.7241C39.1659 27.6689 38.8887 27.5035 38.6672 27.2279C38.1688 26.6215 38.612 26.0151 38.612 25.9599C38.612 25.9599 38.612 26.5664 38.9995 26.9523C39.1659 27.1176 39.3875 27.283 39.775 27.283H39.9414V27.4484C39.9414 27.5035 40.0522 28.3305 40.8276 28.4407V24.7471C40.8276 24.1958 40.9936 23.5894 41.2152 23.0381H36.4518V23.0932Z" fill="white"/>
<path d="M30.3131 24.8661L30.2583 27.1941L30.5325 27.2482L31.1908 25.0285L30.8617 24.3247L30.3131 24.8661Z" fill="white"/>
<path fill-rule="evenodd" clip-rule="evenodd" d="M37.7485 35.9655H37.6929C37.6406 35.9655 37.5992 35.9765 37.5619 35.9864C37.4803 36.008 37.4182 36.0245 37.3037 35.9098C37.3769 36.1296 37.3966 36.296 37.4144 36.4464C37.4372 36.6389 37.4569 36.8053 37.5818 37.0243C37.7201 37.3016 37.9348 37.5022 38.0677 37.6262C38.0949 37.6518 38.1187 37.6741 38.1378 37.6931C38.1378 37.6931 38.1378 37.916 38.0822 38.0832L37.8041 39.5878C37.6373 39.6438 37.4706 39.6438 37.2481 39.6438L37.5261 38.1947C37.5797 38.0068 37.3367 37.8706 37.0083 37.6866C36.6546 37.4885 36.202 37.2348 35.9137 36.8014C35.6357 37.0801 35.0797 37.1915 34.5793 37.1915C34.1345 37.1915 33.6341 37.1358 33.3561 37.0801H33.1337C32.9669 37.0801 32.8001 37.1358 32.6889 37.303L32.6333 37.4702L31.0764 37.0801L30.6872 37.7488C30.6316 37.8603 30.6317 37.916 30.7429 38.0275L30.8541 38.1389C30.7984 38.3619 30.4648 38.6962 30.4648 38.6962L30.2425 38.4175C30.0756 38.1947 30.1312 37.8045 30.298 37.4702L30.9096 36.4113L32.2441 36.5785L32.0217 36.1327C31.8202 35.6481 31.9691 35.105 32.0876 34.6729C32.1274 34.5274 32.1639 34.3945 32.1823 34.2807C32.1568 34.3636 32.0543 34.4051 31.9105 34.4051H31.5213H31.41L31.0764 34.628L30.7984 34.3493C30.7984 34.3493 30.7984 34.2379 30.8541 34.1264L31.5213 33.4019L30.7429 32.5103L31.8549 33.0675L32.1885 32.6775C32.2996 32.7889 32.2441 33.0118 32.2441 33.0118C32.5777 33.0118 33.5229 33.5691 33.5785 34.7952V34.9066V34.9624C33.5855 34.9694 33.5952 34.98 33.6073 34.9932C33.6904 35.0842 33.8847 35.2967 34.0789 35.2967L35.5801 35.4639C35.6435 35.4639 35.7229 35.4398 35.8213 35.4099C35.9821 35.361 36.1939 35.2967 36.4697 35.2967C36.7477 35.2967 36.9702 35.3525 37.2481 35.5197C37.2481 35.5197 37.3593 35.4082 37.5818 35.4082H37.6373C38.1792 35.4082 38.4644 35.8127 38.7611 36.2334C38.8297 36.3306 38.8987 36.4286 38.9716 36.5228C39.1943 36.9129 39.5834 37.4702 39.5834 37.4702C39.4722 37.5816 39.361 37.6931 39.1387 37.6931H38.9716C38.5499 37.628 38.3364 37.0882 38.1543 36.6279C38.0244 36.2997 37.9105 36.0119 37.7485 35.9655ZM31.688 33.6806C31.688 33.792 31.7437 33.8478 31.7992 33.8478C31.8548 33.8478 31.9105 33.792 31.966 33.7363C31.966 33.6248 31.9105 33.5691 31.8548 33.5691C31.7437 33.5691 31.688 33.6248 31.688 33.6806Z" fill="white"/>
<path d="M29.6161 37.0713C29.6161 37.0713 30.1126 36.86 30.1677 36.7016L30.1126 36.5431C30.0574 36.4375 30.0574 36.3319 30.1677 36.2791L30.7193 35.9094L31.6571 36.0678C31.6571 36.0678 31.4916 35.8566 31.4916 35.5925L30.609 35.4341L29.7816 35.9094C29.3955 36.1735 29.3955 36.5959 29.5058 36.86L29.6161 37.0713Z" fill="white"/>
<path d="M36.3196 39.7609C36.4852 39.7609 36.6509 39.7609 36.8717 39.7609C36.8717 39.7609 37.3686 38.299 37.3686 38.2405C37.0926 38.1235 36.5405 37.7727 36.3196 37.6558C36.4852 37.8896 36.8165 38.1235 36.7613 38.3575L36.3196 39.7609Z" fill="white"/>
<path d="M40.8472 31.3408H27.4425V36.3126C27.4425 38.3566 28.9505 39.627 31.1288 39.627C32.972 39.627 33.4747 39.6825 34.1449 40.3453C34.5917 39.9033 34.9827 39.6825 35.8205 39.627V39.5718L36.2673 38.3013C36.2673 38.2461 35.5412 37.4727 35.5412 37.4727C35.262 37.5832 35.0386 37.5832 34.6476 37.5832C34.2566 37.5832 33.8098 37.5279 33.3071 37.4727C33.2512 37.4727 33.1954 37.4727 33.1395 37.4727C33.0837 37.4727 33.0837 37.4727 33.0837 37.5279L33.0278 37.6384L32.8603 37.9146L32.581 37.8594L31.2964 37.5832L31.1288 37.8041V37.8594L31.2964 38.0251L31.2405 38.2461C31.1288 38.5222 30.8495 38.8538 30.7378 38.9642L30.4027 39.2958L30.1235 38.909L29.9001 38.6326C29.6767 38.3566 29.6208 37.9699 29.7325 37.5832L29.3974 37.7489L29.2298 37.4175L29.1181 37.1965C28.8947 36.7545 29.0064 36.1469 29.5091 35.7602L30.5703 35.2078L31.5757 35.3735C31.5757 35.263 31.6315 34.9315 31.6874 34.8763H31.6315L31.073 35.0973L30.5144 34.7106C30.5144 34.7106 30.291 34.4896 30.5144 34.3239L31.0171 33.5505L29.6767 31.8932L31.7432 32.7219L31.8549 32.5561L32.1342 32.2247L32.4693 32.5009C32.581 32.6114 32.6369 32.6667 32.6369 32.7771C33.1954 32.9981 34.2008 33.661 34.3125 34.7106H33.9215C33.9774 34.8211 34.0332 34.8211 34.0891 34.8211L35.5412 34.9868C35.5971 34.9868 35.5971 34.9868 35.6529 34.9315C35.8205 34.8763 36.0998 34.7658 36.4349 34.7658C36.7142 34.7658 36.9376 34.8211 37.2168 34.9315C37.3286 34.8763 37.4403 34.8763 37.552 34.8763H37.6078C38.3896 34.8763 38.7806 35.484 39.1157 35.9259C39.1716 35.9811 39.2276 36.0916 39.2836 36.1469C39.5626 36.5336 39.8977 37.086 39.9536 37.1412L40.1212 37.4175L39.8977 37.6384C39.7302 37.8041 39.5067 38.0251 39.1157 38.0251C39.0601 38.0251 38.9482 38.0251 38.8366 38.0251C38.7806 38.0251 38.6691 37.9699 38.6131 37.9699C38.6131 38.0251 38.6131 38.1356 38.5572 38.1908L38.2781 39.5166C39.8421 39.1298 40.7916 37.9699 40.7916 36.3126L40.8472 31.3408Z" fill="#FFE710"/>
<path d="M27.4444 30.8733H37.8349C37.3348 30.3141 37.3348 29.6429 37.4459 29.1955C37.2792 29.1396 37.1681 29.0277 37.057 28.9159C36.668 29.1955 35.3901 30.1463 35.1122 30.37L35.0567 30.4259L31.0005 29.6989H30.9449C30.8338 29.6989 30.7227 29.6989 30.556 29.6989C30.5004 29.8666 30.3337 30.0344 30.167 30.0344H30.1115C30.0004 30.0344 29.8892 29.9785 29.8337 29.8666C29.7781 29.7548 29.7225 29.6989 29.7781 29.587V29.4751C29.3336 29.1955 28.9446 28.5244 29.1669 27.7973V27.7414L29.2225 27.6854C29.2225 27.6854 29.278 27.6295 29.3891 27.5736L29.1113 27.5176C29.0002 27.5176 28.9446 27.4058 28.9446 27.2939C28.9446 27.1821 29.0558 27.1261 29.1669 27.1261L29.8892 27.238L29.9448 24.7213L31.0005 23.6027L31.6673 25.0009L31.0005 27.4058L31.6117 27.5176C31.7228 27.5176 31.7784 27.6295 31.7784 27.7414C31.7784 27.8532 31.6673 27.9091 31.5561 27.9091C31.5561 27.9091 31.5561 27.9091 31.5006 27.9091L31.0005 27.8532C31.0005 27.8532 31.0005 27.8532 31.0005 27.9091C31.0561 28.021 31.1672 28.0769 31.2227 28.1329L34.3343 28.1888C34.4455 28.0769 34.7789 27.7414 35.1122 27.4058C34.3343 27.1261 34.0565 26.455 34.001 26.0076C33.5564 25.8398 33.2786 25.5602 33.1119 25.1687C32.8897 24.7213 33.0008 24.2738 33.0564 24.0501C32.6674 23.8823 32.2229 23.6027 31.7784 23.1553H27.111C27.3333 23.7146 27.5 24.2738 27.5 24.8891V30.8733H27.4444Z" fill="#FFE710"/>
<path d="M31.7867 33.4458C31.7435 33.4458 31.657 33.4926 31.657 33.5394C31.657 33.5861 31.7002 33.6797 31.7435 33.6797C31.7867 33.6797 31.8732 33.6329 31.8732 33.5861C31.9164 33.4926 31.8732 33.4458 31.7867 33.4458Z" fill="black"/>
<path fill-rule="evenodd" clip-rule="evenodd" d="M40.0717 42.2236L40.8514 42.5525L41.7979 42.8814C41.6365 42.9561 41.4617 43.0389 41.2773 43.1267C40.3807 43.5518 39.2499 44.0885 38.2337 44.3614L38.5123 45.1289C38.5123 45.1289 36.8972 45.8415 34.2797 45.8415C31.6065 45.8415 30.0472 45.1289 30.0472 45.1289L30.3256 44.3614C29.1004 44.0325 27.7638 43.3747 26.7614 42.8814L27.5968 42.5525L28.3764 42.2784L28.1537 41.511L27.9309 40.6339C27.9309 40.6339 29.2675 41.3465 31.2167 41.8947C31.7736 42.0591 32.1634 42.114 32.1634 42.114V42.7169C32.1634 42.7169 33.1659 42.8814 34.224 42.8814C35.2822 42.8814 36.2846 42.7169 36.2846 42.7169V42.0592C36.2846 42.0592 36.6744 42.0043 37.2314 41.8399C39.1805 41.2917 40.5172 40.5791 40.5172 40.5791L40.2945 41.4562L40.0717 42.2236ZM28.8777 42.4429L27.5968 42.8814C28.3765 43.2651 29.2675 43.6488 30.3813 43.8681L30.9939 42.2236C30.27 42.0043 29.0448 41.5658 28.4878 41.2369L28.8777 42.4429ZM34.1683 45.403C32.7204 45.403 30.9939 45.0741 30.5484 44.9096L31.2724 42.8814C31.885 43.0458 33.1659 43.2651 34.1126 43.2651H34.1683C35.1151 43.2651 36.396 43.1007 37.0086 42.8814L37.844 44.9096C37.3427 45.0741 35.672 45.403 34.1683 45.403ZM37.3984 42.2784L38.0109 43.9229C39.0839 43.6588 39.9498 43.2931 40.7092 42.9726C40.738 42.9604 40.7671 42.9481 40.7955 42.9362L39.5148 42.4977L39.9602 41.2917C39.3476 41.5658 38.1225 42.0591 37.3984 42.2784Z" fill="black"/>
<path fill-rule="evenodd" clip-rule="evenodd" d="M37.5324 11.9288C36.8685 11.3758 35.5959 10.878 34.0466 10.878C32.4974 10.878 31.2801 11.3758 30.5607 11.9288C30.5607 11.9288 30.3948 10.712 29.6755 9.60583L30.9481 9.77177L31.612 8.38901L32.774 9.05271L33.9913 7.83594L35.2086 9.05271L36.4812 8.38901L37.1452 9.77177L38.4176 9.60583C37.7538 10.712 37.5324 11.9288 37.5324 11.9288ZM31.2247 10.3248L30.8927 10.2695L30.6161 10.1589C30.7821 10.4908 30.8927 10.8226 30.9481 11.0992C31.778 10.6014 32.94 10.3248 34.1019 10.3248C35.3192 10.3248 36.4258 10.6014 37.3111 11.0992C37.3664 10.8226 37.4771 10.4908 37.6431 10.1589L37.3111 10.2142L36.9791 10.2695L36.8131 9.93768L36.3705 8.9974L35.5405 9.43988L35.2085 9.60579L34.9319 9.38457L34.1019 8.4996L33.2166 9.38457L32.9953 9.6611L32.6633 9.4952L31.8333 9.05271L31.3907 9.99295L31.2247 10.3248Z" fill="black"/>
<path fill-rule="evenodd" clip-rule="evenodd" d="M55.2134 25.1558C55.2134 25.2672 54.4904 27.3296 52.4883 27.3296H52.3771C52.1548 27.3296 51.988 27.3296 51.8209 27.2739C51.8765 28.3887 52.3215 30.4511 54.1569 31.2314L54.7131 31.4544L54.3792 32.0118C54.3743 32.017 54.3639 32.0317 54.3478 32.0542C54.1922 32.2745 53.5118 33.2381 52.0992 33.2381C51.4318 33.2381 50.8756 33.0709 50.4861 32.8479C50.4305 33.3496 50.2638 34.0185 50.0414 34.7431C49.5492 36.2222 49.9276 37.3088 50.0215 37.5786C50.0338 37.6138 50.0414 37.6351 50.0414 37.6416L50.3194 38.2547L49.7076 38.422C49.693 38.422 49.6558 38.4297 49.6006 38.4408C49.445 38.4726 49.1464 38.5336 48.8178 38.5336C48.5951 38.5336 48.3728 38.5336 48.206 38.4776C47.761 38.366 47.3719 38.1432 47.0936 37.9203C46.8713 38.4776 46.593 39.0909 46.0927 39.5923C45.2582 40.4843 43.9794 40.9302 42.3663 40.9302H41.3654L41.9213 40.0941C41.9772 40.0941 42.2552 39.5923 42.3663 38.2547C42.4775 36.6382 43.0337 35.7464 43.6455 35.189C43.4788 35.1332 43.312 35.0218 43.2005 34.9103C42.3495 34.1637 42.3633 33.3151 42.3663 33.1454C42.3663 33.1377 42.3663 33.1314 42.3663 33.1266L42.4219 32.6249H42.9225C44.2573 32.6249 45.147 32.2348 45.9256 31.3429C45.9773 31.2739 46.0291 31.2102 46.0789 31.1486C46.1905 31.0111 46.294 30.8837 46.3706 30.7298C45.9815 30.8412 45.4809 30.9528 44.8691 30.9528H44.3685C43.4788 30.8412 42.8114 30.2839 42.7558 30.2281L42.2552 29.7265L42.867 29.3363C44.1461 28.5002 45.5365 26.8837 44.4796 24.0967C43.8123 22.2573 42.2552 20.5851 39.7524 19.0243C38.8627 18.4669 38.4176 17.8538 38.4176 17.2407C38.4176 16.3422 39.1176 15.9949 39.6642 15.7238C39.6941 15.709 39.7236 15.6944 39.7524 15.68C39.8432 15.6255 39.9337 15.5769 40.0203 15.5304C40.1997 15.4342 40.363 15.3468 40.4753 15.234C40.9204 14.6766 40.5309 13.7291 40.1418 13.1716L39.6412 12.5028L40.4753 12.3355C40.4914 12.3355 40.5217 12.3308 40.5647 12.3242C40.6693 12.3079 40.8502 12.2798 41.0871 12.2798C41.6989 12.2798 42.9225 12.3913 43.9234 13.4503C44.7579 14.2865 44.8691 15.1783 44.8135 15.7914H45.0359H45.147C46.3706 15.7914 46.9824 14.4537 46.9824 14.3979L47.3163 13.5618L47.8721 14.2865C47.9277 14.3422 48.7622 15.4012 48.5395 16.6832C48.3728 17.5751 47.8722 18.2997 46.9268 18.9129C46.8157 18.9686 46.7601 19.0243 46.7045 19.0801C48.4544 19.6282 49.3974 20.8229 50.4332 22.1344C50.4508 22.1568 50.4685 22.1791 50.4861 22.2015L50.5973 22.3688C52.1548 24.3754 54.3792 24.4311 54.6575 24.4311H55.4361L55.2134 25.1558ZM52.2103 32.6807C53.4339 32.6807 53.9902 31.7331 53.9902 31.7331C50.9867 30.5068 51.3206 26.3821 51.3206 26.3821C51.3206 26.3821 51.7097 26.7165 52.4883 26.7165H52.5438C54.2125 26.7165 54.7687 24.9328 54.7687 24.9328H54.7131C54.3792 24.9328 51.932 24.8771 50.2082 22.6475C50.1438 22.5678 50.0802 22.4885 50.0173 22.4099C48.9336 21.0595 47.9937 19.8886 46.2595 19.4146L46.0927 19.3588L46.0371 19.1916C45.9815 18.9129 46.1483 18.6342 46.593 18.3555C49.1513 16.6833 47.4275 14.5652 47.4275 14.5652C47.4275 14.5652 46.7045 16.2931 45.0914 16.2931H44.9803C44.7579 16.2931 44.5908 16.2931 44.4241 16.2374L44.1461 16.1816C44.1461 16.1816 44.5908 14.8996 43.4788 13.7291C42.6446 12.893 41.6434 12.7258 41.0316 12.7258C40.6981 12.7258 40.5309 12.7815 40.5309 12.7815C41.0871 13.5061 41.5322 14.7324 40.8648 15.5127C40.6455 15.7762 40.2971 15.9446 39.9552 16.1097C39.4288 16.3639 38.9182 16.6106 38.9182 17.185C38.9182 17.5752 39.3077 18.0768 39.9191 18.467C41.9772 19.749 44.035 21.4769 44.8691 23.818C45.9256 26.7165 44.7579 28.6117 43.0337 29.7265C43.0337 29.7265 43.5899 30.2281 44.3685 30.2839H44.8135C46.4818 30.2839 47.3163 29.5035 47.3163 29.5035C47.3163 29.5035 47.1492 30.5626 46.315 31.5659C45.5365 32.4578 44.4796 33.0152 42.9225 33.0152C42.9225 33.0152 42.867 33.7955 43.5899 34.4087C44.035 34.8546 45.0914 34.9661 45.0914 34.9661C45.0914 34.9661 43.1449 35.3562 42.9225 38.199C42.8114 39.7598 42.4219 40.3172 42.4219 40.3172H42.4775C46.9824 40.3172 46.8713 36.471 46.8713 36.471C46.8713 36.471 47.1492 37.6416 48.4284 37.9203C48.5395 37.976 48.7067 37.976 48.8734 37.976C49.3185 37.976 49.652 37.8645 49.652 37.8645C49.652 37.8645 48.9846 36.471 49.652 34.5201C50.2082 32.9037 50.097 31.7331 50.097 31.7331C50.097 31.7331 50.7088 32.6807 52.2103 32.6807Z" fill="black"/>
<path fill-rule="evenodd" clip-rule="evenodd" d="M50.4436 20.6372C50.0836 20.1651 49.6987 19.6598 48.9834 19.2978L48.2091 18.8498L48.873 18.4018C48.8849 18.4018 48.9202 18.3833 48.9758 18.3543C49.1763 18.25 49.6374 18.0098 50.2005 18.0098C50.8089 18.0098 51.362 18.2898 51.8048 18.7378C52.9111 19.8578 53.907 19.9698 53.9622 19.9698L54.7365 20.0258L54.4045 20.7538C54.073 21.4818 53.243 21.9858 52.4131 21.9858C52.2299 21.9858 52.0846 21.9473 51.9144 21.9023C51.8791 21.893 51.8427 21.8833 51.8048 21.8738C51.3172 21.6763 51.0013 21.3048 50.6682 20.9126C50.6233 20.8599 50.5781 20.8068 50.5325 20.7538C50.503 20.7152 50.4731 20.6763 50.4436 20.6372ZM51.4728 19.0178C51.0856 18.5698 50.6429 18.4578 50.2557 18.4578C49.7792 18.4578 49.4043 18.664 49.2909 18.7264C49.2794 18.7326 49.2709 18.7374 49.2648 18.7404C49.2633 18.7395 49.2617 18.7387 49.2602 18.7378C49.2525 18.7455 49.2545 18.7458 49.2648 18.7404C50.0924 19.1905 50.572 19.8005 50.9749 20.3129C51.3241 20.7571 51.6154 21.1279 52.026 21.2578C52.1367 21.3138 52.3027 21.3138 52.4687 21.3138C53.1323 21.3138 53.741 20.9218 53.9622 20.4178C53.9622 20.4178 52.7451 20.3618 51.4728 19.0178Z" fill="black"/>
<path d="M49.2491 26.4282C48.8045 22.8135 46.1361 20.1442 43.1898 18.5316C42.9119 18.3647 42.6895 18.2535 42.4112 18.1423C43.301 18.3091 44.7461 18.3091 45.8582 17.3081C45.8582 17.3081 44.1347 18.5871 40.6326 17.4193C41.5775 18.031 43.4677 18.9208 45.1912 20.3667C49.5271 24.1482 46.414 27.8741 46.414 27.8741C47.9707 26.2614 48.0263 24.5375 47.5813 23.0916C48.4154 24.4262 48.9156 26.0945 48.8601 28.1521C48.7489 31.0439 47.1366 33.6019 45.4691 35.6039C44.635 36.6049 44.4682 37.7727 44.4682 37.7727C44.4682 37.7727 44.8017 36.7161 45.747 35.6039C47.5257 33.4907 49.0824 31.3219 49.3047 28.1521C49.4715 28.7082 50.25 30.3209 51.4729 30.9326C51.4729 30.9326 49.9161 30.0429 49.2491 26.4282Z" fill="black"/>
<path fill-rule="evenodd" clip-rule="evenodd" d="M26.0155 38.3101C26.0711 39.6506 26.4048 40.1535 26.4048 40.1535L26.9053 41.0471H25.9042C24.2914 41.0471 23.0678 40.6005 22.178 39.7066C21.6219 39.148 21.3438 38.5336 21.1769 38.0308C20.8989 38.2542 20.5652 38.4776 20.0646 38.5895C19.8422 38.6451 19.6753 38.6451 19.4529 38.6451C19.1241 38.6451 18.8258 38.5842 18.6699 38.5523C18.6149 38.5412 18.5776 38.5336 18.563 38.5336L17.9513 38.366L18.2293 37.7515C18.285 37.7515 18.7855 36.5226 18.2293 34.8468C17.9513 34.1207 17.84 33.4504 17.7844 32.9476C17.3951 33.1711 16.8389 33.3386 16.1716 33.3386C14.6143 33.3386 13.947 32.1656 13.947 32.1656L13.6133 31.607L14.1694 31.3836C16.0047 30.6015 16.394 28.5348 16.5053 27.4176C16.4278 27.4176 16.3504 27.4296 16.2674 27.4425C16.1716 27.4574 16.0683 27.4734 15.9491 27.4734H15.8379C13.8357 27.4734 13.1127 25.4067 13.1127 25.295L12.8903 24.5688H13.6689C13.947 24.5688 16.1716 24.5129 17.7288 22.3903L17.8956 22.2227C17.972 22.1298 18.0479 22.0369 18.1235 21.9443C19.0934 20.7559 20.0265 19.6128 21.6775 19.0946C21.6219 19.0387 21.5663 18.9829 21.455 18.927C20.5096 18.3126 19.9534 17.5864 19.8422 16.6926C19.6197 15.352 20.4539 14.3466 20.5096 14.2907L21.0657 13.5646L21.3994 14.4025C21.3994 14.4583 22.0112 15.7989 23.2347 15.7989H23.3459H23.5684C23.5128 15.2403 23.624 14.2907 24.4582 13.4528C25.4593 12.4474 26.6829 12.2798 27.2946 12.2798C27.684 12.2798 27.9064 12.3357 27.9064 12.3357L28.7406 12.5032L28.1845 13.1735C27.7952 13.7321 27.4058 14.7376 27.8508 15.2403C28.0176 15.4079 28.2957 15.5755 28.5738 15.6872C28.6026 15.7016 28.632 15.7163 28.6619 15.7311C29.2085 16.0029 29.9086 16.3509 29.9086 17.2512C29.9086 17.8657 29.408 18.4802 28.5738 19.0387C26.0711 20.6028 24.5139 22.2785 23.8465 24.1219C22.7898 26.9148 24.1245 28.5348 25.4593 29.3727L26.0711 29.7637L25.5706 30.2664C25.5149 30.3781 24.9032 30.9367 23.9577 30.9925H23.4572C22.901 30.9925 22.3449 30.8808 21.9556 30.7691C22.0323 30.9234 22.1357 31.051 22.2472 31.1888C22.2972 31.2506 22.3488 31.3144 22.4005 31.3836C23.1235 32.2214 24.0689 32.6683 25.4037 32.6683H25.9042L25.9599 33.1711C25.9599 33.1731 25.9599 33.1762 25.96 33.1805C25.9626 33.2952 25.9834 34.2047 25.1256 34.9586C25.0144 35.0703 24.8476 35.182 24.6807 35.2378C25.2925 35.7964 25.9043 36.6902 26.0155 38.3101ZM21.5106 36.5785C21.5106 36.5785 21.3994 40.4326 25.9042 40.4326C25.9178 40.4326 25.905 40.4031 25.8762 40.3364C25.7869 40.1286 25.5435 39.5632 25.4593 38.4216C25.2369 35.573 23.2903 35.182 23.2903 35.182C23.2903 35.182 24.347 35.0144 24.7919 34.6234C25.5149 33.9531 25.4593 33.2269 25.4593 33.2269C23.9021 33.2269 22.8454 32.6683 22.0668 31.7746C21.2326 30.7691 21.0657 29.7078 21.0657 29.7078C21.0657 29.7078 21.8999 30.4898 23.5684 30.4898H24.0133C24.7919 30.434 25.3481 29.9312 25.3481 29.9312C23.624 28.8141 22.4561 26.9149 23.5128 24.0102C24.347 21.6641 26.4048 19.9325 28.4625 18.6477C29.1299 18.2009 29.5192 17.6981 29.5192 17.3071C29.5192 16.6943 29.0027 16.455 28.4734 16.2097C28.1343 16.0526 27.7899 15.8931 27.5727 15.6313C26.9609 14.8493 27.3503 13.6204 27.9064 12.8943C27.9064 12.8943 27.684 12.8384 27.4058 12.8384C26.8497 12.8384 25.793 12.9501 24.9588 13.8439C23.8465 15.0169 24.2914 16.3016 24.2914 16.3016L24.0133 16.3575C23.8465 16.4134 23.624 16.4134 23.4572 16.4134H23.346C21.7331 16.4134 21.0101 14.6818 21.0101 14.6818C21.0101 14.6818 19.286 16.8044 21.8443 18.4802C22.2336 18.7595 22.4561 19.0388 22.4005 19.3181L22.3449 19.4856L22.178 19.5415C20.4418 20.0031 19.5496 21.124 18.5111 22.4285C18.4186 22.5448 18.3249 22.6625 18.2293 22.7813C16.5053 25.0157 14.0026 25.0715 13.7245 25.0715H13.6689C13.6689 25.0715 14.225 26.859 15.8935 26.859H15.9491C16.7277 26.8031 17.117 26.5238 17.117 26.5238C17.117 26.5238 17.3951 30.6015 14.3919 31.8304C14.3919 31.8304 14.948 32.7801 16.1716 32.7801C17.6732 32.7242 18.285 31.8304 18.285 31.8304C18.285 31.8304 18.1737 33.0035 18.7299 34.6234C19.3972 36.5785 18.7299 37.9749 18.7299 37.9749C18.7299 37.9749 19.1192 38.0867 19.5085 38.0867C19.6197 38.0867 19.7866 38.0867 19.9534 38.0308C21.1769 37.7515 21.5106 36.5785 21.5106 36.5785Z" fill="black"/>
<path fill-rule="evenodd" clip-rule="evenodd" d="M16.4049 21.7571C16.239 21.813 16.0177 21.869 15.7964 21.869C14.9667 21.869 14.1369 21.3091 13.805 20.637L13.4731 19.9091L14.1922 19.8531C14.2475 19.8531 15.2433 19.797 16.3496 18.6211C16.7922 18.117 17.3454 17.8931 17.9539 17.8931C18.673 17.8931 19.2262 18.2291 19.2815 18.2851L20.0006 18.7891L19.2262 19.1811C18.5071 19.6291 18.0645 20.1331 17.6773 20.637C17.3454 21.1411 16.9581 21.5891 16.4049 21.7571ZM18.0091 18.4531C17.6219 18.4531 17.1794 18.5651 16.7922 19.0131C15.7703 20.0475 14.7842 20.3234 14.4355 20.4209C14.35 20.4448 14.3028 20.458 14.3028 20.4691C14.5241 20.9171 15.1326 21.3651 15.7964 21.3651C15.9624 21.3651 16.073 21.3651 16.239 21.3091C16.6424 21.1559 16.9309 20.7933 17.2721 20.3645C17.6795 19.8526 18.162 19.2462 19.0049 18.7891C19.0049 18.7891 18.5623 18.4531 18.0091 18.4531Z" fill="black"/>
<path d="M19.4662 28.1817C19.355 26.1185 19.911 24.5014 20.7448 23.1073C20.3001 24.5014 20.3557 26.2858 21.9123 27.9029C21.9123 27.9029 18.8547 24.2226 23.1353 20.375C24.8586 18.9252 26.7488 18.033 27.6938 17.4196C24.1916 18.5906 22.4682 17.3081 22.4682 17.3081C23.58 18.2561 25.0254 18.2561 25.9149 18.1445C25.6925 18.2561 25.4146 18.3676 25.1366 18.5349C22.1902 20.152 19.5218 22.8285 19.0771 26.4531V26.3973C18.41 30.0218 16.8534 30.914 16.8534 30.914C18.0764 30.3006 18.8547 28.7393 19.0215 28.1259C19.2439 31.3043 20.7448 33.479 22.5794 35.598C23.5244 36.7132 23.858 37.7727 23.858 37.7727C23.858 37.7727 23.6912 36.546 22.8573 35.598C21.1896 33.6463 19.5774 31.137 19.4662 28.1817Z" fill="black"/>
<path d="M33.1724 20.6992V21.4408C33.4638 21.1556 33.93 21.2126 33.93 21.2126V22.2965C33.93 22.2965 33.93 22.8098 33.6969 23.038H34.2214H34.7459C34.5711 22.8098 34.5128 22.2965 34.5128 22.2965V21.2126C34.5128 21.2126 35.0374 21.1556 35.2705 21.4408V20.6992H34.1631H33.1724Z" fill="black"/>
<path d="M32.7061 16.3356C33.0558 16.6127 33.2889 16.6682 33.2889 16.6682L33.4055 16.7236V16.0584L32.1233 15.5595C32.1233 15.5041 32.1233 15.8921 32.7061 16.3356Z" fill="black"/>
<path d="M35.7367 16.3895C36.3196 15.944 36.3196 15.5542 36.3196 15.5542L35.0374 16.0554V16.7236L35.1539 16.6679C35.1539 16.6679 35.387 16.6122 35.7367 16.3895Z" fill="black"/>
<path fill-rule="evenodd" clip-rule="evenodd" d="M34.1604 11.6948C36.1031 11.6948 37.8238 12.5881 37.8238 13.649L37.7683 13.8723L36.9912 18.3389L37.7683 18.7856L39.711 19.9022C39.711 19.9022 40.1549 20.1256 40.3773 20.2931C41.1543 20.7955 41.3206 21.5772 40.8767 21.9122C40.7656 21.2981 40.2661 20.6281 39.3223 20.6281C38.6565 20.6281 38.1014 21.0189 37.7128 21.5214C37.6739 21.6389 37.6076 21.7289 37.5332 21.83C37.5015 21.873 37.4684 21.918 37.4353 21.968L37.1023 22.4705H42.2644C41.8757 23.2522 41.5426 24.0338 41.5426 24.9271V36.4286C41.5426 39.1643 39.3779 40.5044 37.1023 40.5044C36.9278 40.5044 36.7684 40.5033 36.6217 40.5025C35.2749 40.4933 35.0059 40.4914 34.1049 41.3976C33.1608 40.501 32.9106 40.5014 31.3873 40.5041H31.3859H31.3844H31.3829H31.3813H31.3797H31.378H31.3763H31.3745H31.3726H31.3706C31.2869 40.5044 31.1993 40.5044 31.1076 40.5044C28.7763 40.5044 26.667 39.2203 26.667 36.4286V24.983C26.667 24.0897 26.334 23.308 25.9454 22.5264H31.1076L30.7745 22.0239C30.719 21.8564 30.608 21.6889 30.497 21.5772C30.0529 21.0189 29.5534 20.6839 28.8873 20.6839C27.9437 20.6839 27.4441 21.3539 27.3331 21.968C26.8891 21.633 27.0556 20.9072 27.8327 20.3489C28.0547 20.1814 28.4987 19.9581 28.4987 19.9581L30.5525 18.8414L31.3296 18.3947L30.5525 13.9281L30.497 13.649C30.497 12.644 32.2177 11.6948 34.1604 11.6948ZM33.9384 15.1006L31.2186 14.1515L31.9402 18.2831L33.9384 19.3997V15.1006ZM31.7736 23.1964C32.2177 23.643 32.6617 23.9222 33.0503 24.0897C32.9948 24.313 32.9392 24.7597 33.1058 25.2063C33.2723 25.5413 33.5498 25.8205 33.9939 26.0438C34.0494 26.4905 34.3269 27.1605 35.104 27.4396L34.3269 28.2213L31.2185 28.1655C31.2017 28.1486 31.1799 28.1317 31.1559 28.1132C31.1009 28.0707 31.0352 28.02 30.9965 27.9421V27.8863L31.4961 27.9421H31.5516C31.6626 27.9421 31.7181 27.8863 31.7736 27.7746C31.7736 27.663 31.7181 27.5513 31.6071 27.5513L30.9965 27.4396L31.6626 25.0389L30.9965 23.643L29.9419 24.7597L29.8864 27.2721L29.1648 27.1605C29.0538 27.1605 28.9428 27.2163 28.9428 27.328C28.9428 27.4396 28.9983 27.5513 29.1093 27.5513L29.3869 27.6071C29.2758 27.663 29.2203 27.7188 29.2203 27.7188L29.1093 27.7746V27.8305C28.9428 28.5563 29.3313 29.1705 29.7199 29.5055V29.6171C29.7199 29.7288 29.7199 29.8404 29.7754 29.8963C29.8309 30.0079 29.9419 30.0638 30.0529 30.0638H30.1084C30.275 30.0638 30.4415 29.9521 30.497 29.7288H30.8855H30.941L34.993 30.4546L35.0485 30.3988C35.3815 30.1754 36.6027 29.2821 36.9912 28.9471C37.0725 29.0289 37.1538 29.0807 37.2568 29.1464C37.2945 29.1705 37.3352 29.1964 37.3798 29.2263C37.2688 29.6729 37.2133 30.3429 37.7683 30.9012H27.4441V24.9272C27.4441 24.3689 27.2776 23.7547 27.0556 23.1964H31.7736ZM35.8534 29.3937C36.2142 29.1285 36.575 28.8633 36.7692 28.7238C36.4917 28.2771 36.4917 27.7746 36.4917 27.3838C36.4339 27.3257 36.3762 27.2743 36.3208 27.225C36.2164 27.1322 36.1201 27.0466 36.0476 26.9371C35.6224 27.4124 34.8353 28.1708 34.5762 28.4204C34.5308 28.4641 34.5017 28.4921 34.4934 28.5004L34.4379 28.5563L31.3296 28.5004C31.3296 28.8354 31.2741 29.1146 31.2186 29.2821V29.3937L34.9375 30.0637C35.1318 29.9242 35.4926 29.6589 35.8534 29.3937ZM30.608 28.0538C30.719 28.2213 30.83 28.3329 30.941 28.4446C30.941 28.6121 30.941 28.8913 30.8855 29.1146C30.8855 29.1704 30.8855 29.2263 30.83 29.2821V29.3379C30.6635 29.3379 30.3304 29.3379 30.1084 29.2263C29.8309 29.1146 29.3869 28.5563 29.4979 27.998C29.6089 27.9421 29.9419 27.7746 30.1639 27.7746C30.3859 27.7746 30.4969 27.8304 30.608 28.0538ZM30.2749 24.9272L30.2194 27.328L30.497 27.3838L31.163 25.0947L30.83 24.3689L30.2749 24.9272ZM36.7692 39.7228H36.2141L36.6582 38.3827C36.6977 38.2635 36.5401 38.0875 36.386 37.9154L36.3859 37.9154L36.3859 37.9153C36.3237 37.8459 36.262 37.777 36.2141 37.7128C36.292 37.752 36.4108 37.8186 36.5443 37.8934L36.5444 37.8935L36.5445 37.8935C36.7915 38.032 37.0886 38.1986 37.2688 38.2711C37.2133 38.3269 36.7692 39.7228 36.7692 39.7228ZM37.8793 39.6668L38.157 38.1594C38.157 37.992 38.2122 37.7686 38.3789 37.8803C38.3333 37.8115 38.2597 37.7334 38.1773 37.6458C38.0589 37.52 37.922 37.3749 37.8238 37.2103C37.6992 36.9908 37.6795 36.8242 37.6567 36.6312C37.639 36.4806 37.6193 36.3139 37.5463 36.0936C37.5463 36.0936 37.6018 35.982 37.7128 35.982H37.7683C37.9301 36.0284 38.0435 36.3168 38.1735 36.6456C38.3552 37.1068 38.5683 37.6476 38.9896 37.7128H39.156C39.3223 37.7128 39.4891 37.657 39.5999 37.4894C39.5999 37.4894 39.2671 36.9311 38.9896 36.5403C38.9164 36.446 38.8474 36.3477 38.7791 36.2504C38.4832 35.8289 38.1984 35.4237 37.6573 35.4237H37.6018C37.3798 35.4237 37.2688 35.5353 37.2688 35.5353C36.9912 35.3678 36.7137 35.312 36.4917 35.312C36.2569 35.312 36.0424 35.3731 35.8727 35.4215L35.8726 35.4215H35.8726H35.8726C35.7614 35.4532 35.6695 35.4795 35.6036 35.4795L34.1049 35.312C33.8829 35.312 33.6608 35.0887 33.6053 34.977V34.9211V34.8095C33.5498 33.5812 32.6062 33.0228 32.2732 33.0228C32.2732 33.0228 32.3287 32.7995 32.2177 32.6878L31.8847 33.0787L30.7745 32.5204L31.5516 33.4137L30.8855 34.1395C30.7745 34.1953 30.7745 34.307 30.83 34.3628L31.1076 34.642L31.4406 34.4187H31.5516H31.9402C32.0512 34.4187 32.2177 34.3628 32.2177 34.2512C32.2177 34.4289 32.1621 34.6417 32.1025 34.8696C31.9938 35.2858 31.8718 35.7526 32.0512 36.1495L32.2732 36.5961L30.941 36.4286L30.3305 37.4894C30.1084 37.8244 30.1084 38.2153 30.275 38.4387L30.497 38.7177C30.497 38.7177 30.83 38.3827 30.8855 38.1594L30.7745 38.0478C30.6635 37.9361 30.6635 37.8803 30.719 37.7686L31.1076 37.0986L32.7173 37.5453L32.7728 37.3778C32.8837 37.2103 33.0503 37.1544 33.2168 37.1544H33.4388C33.7163 37.2103 34.1604 37.2661 34.66 37.2661C35.215 37.2661 35.7146 37.2103 35.9921 36.8753C36.2735 37.2999 36.7119 37.5379 37.0612 37.7276C37.401 37.9121 37.6566 38.0509 37.6018 38.2711L37.3243 39.7228C37.4075 39.7228 37.5046 39.7086 37.6017 39.6948H37.6018H37.6019C37.699 39.681 37.7961 39.6668 37.8793 39.6668ZM30.0529 36.7636L30.1084 36.9312C30.0529 37.0986 29.5534 37.322 29.5534 37.322L29.4424 37.0428C29.3313 36.7636 29.3313 36.317 29.7199 36.0378L30.5525 35.5353L31.4406 35.7028C31.4406 35.982 31.6071 36.2053 31.6071 36.2053L30.6635 36.0378L30.1084 36.4286C30.0529 36.4845 30.0529 36.652 30.0529 36.7636ZM38.5453 38.2711L38.2678 39.6113C39.8222 39.2203 40.7656 38.0478 40.7656 36.2611V31.2362H27.4441V36.2611C27.4441 38.3269 28.9428 39.6113 31.1075 39.6113C32.9392 39.6113 33.4388 39.6669 34.1049 40.3369C34.6045 39.8344 34.993 39.6669 35.7701 39.6113V39.5553L36.2141 38.2711C36.1586 38.2153 35.4926 37.4336 35.4926 37.4336C35.215 37.5453 34.993 37.5453 34.6045 37.5453C34.2159 37.5453 33.7718 37.5453 33.2723 37.4336H33.1058C33.0781 37.4336 33.0642 37.4336 33.0572 37.4406C33.0503 37.4475 33.0503 37.4615 33.0503 37.4894L32.9948 37.6011L32.8282 37.8803L32.5507 37.8244L31.274 37.5453L31.1075 37.8244V37.8803L31.274 37.992L31.2185 38.2153C31.1075 38.4946 30.83 38.8293 30.719 38.9412L30.3859 39.2762L30.1084 38.8852L29.8864 38.6062C29.6643 38.3827 29.6089 37.9361 29.7199 37.5453L29.3869 37.7128L29.2203 37.3778L29.1093 37.1544C28.8873 36.7636 28.9428 36.0936 29.4979 35.7028L30.5525 35.1445L31.4961 35.2561C31.5516 35.2003 31.6071 34.8653 31.6071 34.7537H31.5516L30.9965 34.977L30.4414 34.5862C30.4414 34.5862 30.2749 34.4187 30.4414 34.1953L30.941 33.4137L29.6089 31.7387L31.6626 32.5762L31.7736 32.4645L32.0511 32.1295L32.3842 32.4087C32.4952 32.4645 32.5507 32.5762 32.5507 32.6878C33.1058 32.9112 34.1049 33.5812 34.2159 34.642L33.8829 34.7537C33.9939 34.8095 34.0494 34.8653 34.0494 34.8653L35.4926 35.0328C35.5481 35.0328 35.6036 35.0328 35.6591 34.977C35.6785 34.9705 35.6994 34.9632 35.7217 34.9555C35.891 34.8967 36.1419 34.8095 36.4362 34.8095C36.7137 34.8095 36.9912 34.8653 37.2132 34.977C37.2687 34.977 37.3242 34.963 37.3797 34.9491L37.3798 34.9491C37.4353 34.9351 37.4908 34.9211 37.5463 34.9211H37.6018C38.3211 34.9211 38.7075 35.4473 39.0252 35.8798V35.8802C39.0509 35.9148 39.0758 35.9489 39.1004 35.982C39.1284 36.0099 39.156 36.0518 39.1836 36.0936C39.2115 36.1355 39.2391 36.1774 39.2671 36.2053C39.5447 36.5961 39.933 37.2103 39.933 37.2103L40.0997 37.4894L39.8774 37.7128C39.711 37.8803 39.4891 38.1036 39.1004 38.1036H38.8228C38.7673 38.1036 38.6565 38.1036 38.6009 38.0478C38.6009 38.0757 38.5871 38.1176 38.5733 38.1594C38.5591 38.2013 38.5453 38.2432 38.5453 38.2711ZM41.1543 23.1964C40.9323 23.7547 40.7656 24.313 40.7656 24.9271V28.6679C39.9886 28.5563 39.8774 27.663 39.8774 27.663V27.4954H39.711C39.3779 27.4396 39.156 27.328 38.934 27.1604C38.5453 26.7696 38.5453 26.1555 38.5453 26.1555C38.5453 26.1642 38.5346 26.1851 38.5185 26.2167C38.4299 26.388 38.1792 26.8741 38.6009 27.4396C38.8228 27.7188 39.1004 27.8863 39.4891 27.9421C39.5999 28.3888 39.933 29.0588 40.7656 29.1704V31.0129H38.4345C37.4895 30.4626 37.7477 29.5986 37.8116 29.3847C37.819 29.3598 37.8238 29.3437 37.8238 29.3379L37.9348 29.1146L37.7683 28.9471C36.7019 28.5385 36.8899 27.569 36.9296 27.3642V27.3642C36.9333 27.3451 36.9357 27.3327 36.9357 27.328L36.9912 27.1604L36.8247 27.1046C35.9293 26.6808 35.9835 25.6035 35.9914 25.4467L35.9919 25.4355C35.992 25.4329 35.9921 25.431 35.9921 25.4297C35.7146 25.653 35.6036 26.1555 35.7701 26.658C35.6591 26.7696 35.4926 26.9371 35.3815 27.1046C34.4379 26.8255 34.4379 25.8763 34.4379 25.8763V25.7088L34.3269 25.653C33.9384 25.4855 33.6608 25.318 33.5498 24.983C33.3833 24.648 33.4388 24.313 33.4943 24.1455C33.5498 24.1455 33.6053 24.1594 33.6608 24.1734C33.7163 24.1874 33.7718 24.2013 33.8274 24.2013H34.1604H34.4934C35.104 24.1455 35.7701 23.8663 36.4916 23.1405H41.1543V23.1964ZM38.4345 19.9581L37.5463 19.3997L36.4362 18.8414L33.9384 20.2372L31.4406 18.8414L30.497 19.3997L29.6089 19.9581L29.3869 20.0697C29.8864 20.1814 30.275 20.4605 30.608 20.7955L30.6635 20.8514C30.6913 20.9072 30.7329 20.9491 30.7745 20.991C30.8162 21.0328 30.8578 21.0747 30.8855 21.1305L30.941 21.1864C30.9688 21.2422 30.9966 21.2841 31.0243 21.326C31.0521 21.3678 31.0798 21.4097 31.1076 21.4655L31.1631 21.5214C31.1908 21.5772 31.2325 21.633 31.2741 21.6889C31.3157 21.7447 31.3573 21.8005 31.3851 21.8564C32.0512 22.973 33.0503 23.643 33.9939 23.643C34.9375 23.643 35.9366 22.973 36.6027 21.8564C36.6304 21.8005 36.6721 21.7447 36.7137 21.6889C36.7553 21.633 36.797 21.5772 36.8247 21.5214C36.8802 21.5214 36.8802 21.4655 36.8802 21.4655C36.9912 21.3539 37.0467 21.2981 37.1023 21.1864C37.1578 21.1864 37.1578 21.1305 37.1578 21.1305C37.2133 21.0189 37.3243 20.9072 37.3798 20.8514L37.4353 20.7955C37.7683 20.4605 38.157 20.2372 38.6565 20.0697L38.4345 19.9581ZM36.3252 18.2831L34.3269 19.3439V15.0448L37.0467 14.0957L36.3252 18.2831ZM31.163 13.4257L34.1049 14.5982L37.0467 13.4257C36.8247 12.8115 35.6591 12.309 34.1049 12.309C32.5507 12.309 31.4406 12.8115 31.163 13.4257Z" fill="black"/>
<path opacity="0.5" fill-rule="evenodd" clip-rule="evenodd" d="M-0.431213 58.2863C-0.431213 58.2863 2.37558 58.2863 3.46806 58.2863C4.3488 58.2863 6.88455 59.6196 7.83441 60.1363C8.07005 60.2643 8.34455 60.3 8.60419 60.2321L12.8591 59.1247C12.9592 59.0986 13.0522 59.0503 13.1312 58.9836L17.7101 55.1058C18.001 54.8593 18.4037 54.793 18.7584 54.9326L21.5886 56.0477C21.9245 56.1803 22.3051 56.1278 22.5929 55.9101L26.9361 52.6207C27.1956 52.424 27.5327 52.3612 27.8458 52.4505L32.1878 53.6936C32.4922 53.781 32.74 54.0026 32.8603 54.2955L36.1287 62.25C36.2289 62.4942 36.5546 62.5398 36.7183 62.3332L41.0477 56.863C41.1251 56.7649 41.2279 56.6898 41.3448 56.6457L45.6032 55.0361C46.1591 54.826 46.5976 54.3875 46.8077 53.832L50.5869 43.8389C50.6881 43.5717 51.0523 43.5361 51.203 43.7791L54.6557 49.3466C54.832 49.6311 55.1873 49.748 55.4982 49.6234L59.5838 47.9892C59.8019 47.9018 60.0495 47.9317 60.2408 48.0686L63.9668 50.7293C64.3272 50.9865 64.8328 50.8432 65.0041 50.4353L69.4313 39.8975V69.1454H-0.340853" fill="#4A5262"/>
<path d="M54.127 49.722C54.4858 50.297 55.2042 50.5327 55.834 50.2824L59.7333 48.7326C59.8349 48.692 59.9506 48.7058 60.04 48.7694L63.5471 51.2588C64.178 51.7065 65.0532 51.5582 65.5009 50.9268C65.56 50.844 65.6094 50.7551 65.6493 50.6615L69 42.7469C69 42.7469 69 40.1547 69 39.9424L64.6561 50.2418C64.6469 50.2633 64.6354 50.2836 64.6219 50.3027C64.5184 50.4484 64.3164 50.4829 64.1708 50.3794L60.664 47.89C60.2765 47.6152 59.7762 47.555 59.335 47.7306L55.4357 49.2808C55.2904 49.3386 55.1245 49.2842 55.0417 49.1512L51.7312 43.8459C51.6189 43.6661 51.451 43.5281 51.2532 43.4526C50.7522 43.262 50.1917 43.5135 50.0012 44.0145L46.3411 53.632C46.1322 54.1813 45.6971 54.6141 45.1471 54.8207L41.1174 56.3349C40.8821 56.423 40.6751 56.5729 40.5175 56.7692L36.055 62.3248L33.2534 54.4462C33.0669 53.9218 32.6521 53.5105 32.1259 53.3284L28.0533 51.9185C27.4541 51.7111 26.7903 51.8284 26.2981 52.2282L22.1772 55.5763C21.9662 55.7476 21.6793 55.7924 21.4262 55.6932L18.8734 54.6934C18.2479 54.4485 17.5386 54.5654 17.0247 54.9978L12.56 58.7556C12.523 58.787 12.4795 58.8093 12.4327 58.8216L8.28088 59.8956C8.0947 59.9436 7.89713 59.919 7.72854 59.8263C5.45303 58.5766 3.96979 57.9564 3.15521 57.9564H-0.768127C-1.06584 57.9564 -1.30719 58.1979 -1.30719 58.4957C-1.30719 58.7932 -1.06584 59.0347 -0.768127 59.0347C1.76851 59.0347 1.76851 59.0347 3.15521 59.0347C3.71484 59.0347 5.10749 59.617 7.2095 60.7712C7.6189 60.9962 8.09872 61.0564 8.5509 60.9395L12.7028 59.8654C12.9055 59.8128 13.094 59.7155 13.2543 59.5806L17.719 55.8227C17.9306 55.6445 18.2226 55.5966 18.4802 55.6974L21.033 56.6971C21.6478 56.9378 22.3446 56.8294 22.8571 56.4131L26.978 53.065C27.1806 52.9002 27.454 52.8523 27.7007 52.9374L31.7733 54.3469C31.99 54.422 32.1608 54.5915 32.2376 54.8073L35.1038 62.868C35.2834 63.3729 35.8382 63.6366 36.3431 63.4572C36.5126 63.397 36.662 63.2908 36.7745 63.1505L41.3582 57.4442C41.3946 57.399 41.4425 57.3645 41.4966 57.3438L45.5262 55.83C46.3661 55.5145 47.03 54.8537 47.3489 54.0153L50.9316 44.601L54.127 49.722Z" fill="#C7C9CC"/>
<path fill-rule="evenodd" clip-rule="evenodd" d="M55.4158 50.9008C56.4278 50.9008 57.2485 50.0804 57.2485 49.0681C57.2485 48.0557 56.4278 47.2354 55.4158 47.2354C54.4034 47.2354 53.5831 48.0557 53.5831 49.0681C53.5831 50.0804 54.4034 50.9008 55.4158 50.9008Z" fill="#2F3744"/>
<path fill-rule="evenodd" clip-rule="evenodd" d="M53.0438 49.0684C53.0438 47.7585 54.106 46.6963 55.4158 46.6963C56.7257 46.6963 57.7875 47.7585 57.7875 49.0684C57.7875 50.3782 56.7257 51.44 55.4158 51.44C54.106 51.44 53.0438 50.3782 53.0438 49.0684ZM55.4158 47.7746C54.7013 47.7746 54.1221 48.3538 54.1221 49.0684C54.1221 49.7829 54.7013 50.3621 55.4158 50.3621C56.1304 50.3621 56.7096 49.7829 56.7096 49.0684C56.7096 48.3538 56.1304 47.7746 55.4158 47.7746Z" fill="#C7C9CC"/>
</g>
</g>
<defs>
<linearGradient id="paint0_linear_1041_1980" x1="-44.7114" y1="45.8781" x2="43.4898" y2="145.283" gradientUnits="userSpaceOnUse">
<stop stop-color="#0E58D2"/>
<stop offset="1" stop-color="#001657"/>
</linearGradient>
<linearGradient id="paint1_linear_1041_1980" x1="34.2639" y1="94.2164" x2="94.9834" y2="34.4732" gradientUnits="userSpaceOnUse">
<stop stop-color="#131D2C"/>
<stop offset="1" stop-color="#2F3744"/>
</linearGradient>
</defs>
</svg>
