<svg width="20" height="20" viewBox="0 0 20 20" fill="#00ffff" xmlns="http://www.w3.org/2000/svg">
<path d="M10 0C4.47677 0 0 4.47677 0 10C0 15.5232 4.47677 20 10 20C15.5232 20 20 15.5232 20 10C20 4.47677 15.5232 0 10 0ZM18.6935 9.67742H14.8252C14.7897 8.24839 14.5355 6.88323 14.0845 5.63355C14.9555 5.27032 15.7606 4.7871 16.4948 4.21613C17.8 5.68129 18.6161 7.58387 18.6935 9.67742ZM9.64323 18.6916C8.57097 17.7987 7.67161 16.6394 7.01355 15.2929C7.85806 15.029 8.7529 14.8845 9.67742 14.8548V18.6929C9.66581 18.6929 9.65484 18.6923 9.64323 18.6916ZM10.3555 1.30839C11.5723 2.32129 12.5652 3.67806 13.2368 5.26065C12.3168 5.57484 11.3394 5.75742 10.3219 5.78968V1.30645C10.3342 1.3071 10.3445 1.30774 10.3555 1.30839ZM11.4303 1.41806C13.211 1.71419 14.8084 2.54581 16.0523 3.74968C15.3768 4.26774 14.6387 4.70645 13.8406 5.03871C13.2535 3.6471 12.4297 2.41677 11.4303 1.41806ZM9.67742 1.30645V5.78968C8.66 5.75677 7.68194 5.57484 6.76258 5.26065C7.43419 3.67806 8.4271 2.32129 9.64387 1.30839C9.65548 1.30774 9.66581 1.3071 9.67742 1.30645ZM6.15871 5.03935C5.36194 4.7071 4.62323 4.26839 3.94774 3.75032C5.19097 2.54645 6.78903 1.71484 8.56968 1.41871C7.56968 2.41677 6.74645 3.6471 6.15871 5.03935ZM6.51935 5.85548C7.51419 6.20065 8.57419 6.40194 9.67742 6.43548V9.67742H5.82C5.85484 8.32645 6.09419 7.03548 6.51935 5.85548ZM9.67742 10.3226V14.2097C8.66 14.2406 7.67613 14.4071 6.74903 14.7058C6.19032 13.3755 5.86064 11.8935 5.82 10.3226H9.67742ZM8.56968 18.5819C6.97419 18.3168 5.52516 17.6219 4.3471 16.6129C4.98258 16.1723 5.66968 15.7994 6.40387 15.5161C6.96645 16.6826 7.70258 17.7181 8.56968 18.5819ZM10.3226 18.6935V14.8555C11.2465 14.8852 12.1419 15.0297 12.9865 15.2935C12.3277 16.64 11.429 17.7994 10.3568 18.6923C10.3458 18.6923 10.3342 18.6929 10.3226 18.6935ZM13.5961 15.5161C14.3297 15.7994 15.0161 16.1729 15.6529 16.6129C14.4748 17.6213 13.0258 18.3168 11.4303 18.5819C12.2974 17.7181 13.0329 16.6826 13.5961 15.5161ZM13.251 14.7058C12.3232 14.4071 11.3394 14.2406 10.3226 14.2097V10.3226H14.18C14.1394 11.8935 13.809 13.3755 13.251 14.7058ZM10.3226 9.67742V6.43548C11.4252 6.40194 12.4852 6.20129 13.4806 5.85613C13.9052 7.03613 14.1445 8.3271 14.18 9.67806H10.3226V9.67742ZM3.50581 4.21613C4.24 4.7871 5.04516 5.27032 5.91548 5.63355C5.46452 6.88323 5.21032 8.24839 5.17484 9.67742H1.30645C1.38387 7.58387 2.2 5.68129 3.50581 4.21613ZM1.30645 10.3226H5.17484C5.21484 11.971 5.55935 13.5277 6.14452 14.9271C5.3271 15.2458 4.56516 15.6703 3.86194 16.1729C2.3471 14.6652 1.39097 12.6039 1.30645 10.3226ZM16.1381 16.1723C15.4348 15.6703 14.6729 15.2452 13.8548 14.9265C14.4406 13.5271 14.7845 11.9703 14.8252 10.3219H18.6935C18.609 12.6039 17.6523 14.6652 16.1381 16.1723Z" fill="#00ffff"/>
</svg>
